PathFileType	4	(X/Y/Z)	./resultDataOpenSim/trcMotMarkerGrf/sub06/qtm-01-01.trc
DataRate	CameraRate	NumFrames	NumMarkers	Units	OrigDataRate	OrigDataStartFrame	OrigNumFrames
250.000000	250.000000	12	24	m	250.000000	296	472
Frame#	Time	L.Toe.Tip			R.Toe.Tip			L.Ankle.Lat			R.Ankle.Lat			L.Ankle.Med			R.Ankle.Med			L.Heel			R.Heel			L.Knee.Lat			R.Knee.Lat			L.Knee.Med			R.Knee.Med			L.Thigh.Upper			R.Thigh.Upper			L.ASIS			R.ASIS			V.Sacral			L.Acromium			R.Acromium			C7			L.Elbow			R.Elbow			L.Wrist.Lat			R.Wrist.Lat
		X1	Y1	Z1	X2	Y2	Z2	X3	Y3	Z3	X4	Y4	Z4	X5	Y5	Z5	X6	Y6	Z6	X7	Y7	Z7	X8	Y8	Z8	X9	Y9	Z9	X10	Y10	Z10	X11	Y11	Z11	X12	Y12	Z12	X13	Y13	Z13	X14	Y14	Z14	X15	Y15	Z15	X16	Y16	Z16	X17	Y17	Z17	X18	Y18	Z18	X19	Y19	Z19	X20	Y20	Z20	X21	Y21	Z21	X22	Y22	Z22	X23	Y23	Z23	X24	Y24	Z24

296	1.18	0.35416633	0.083869029	-0.063759338	0.84661254	0.035588366	0.10416547	0.34451524	0.21411549	-0.083681592	0.70971925	0.059838874	0.13024375	0.3665457	0.21573159	-0.0004687529	0.72902672	0.08237466	0.042946199	0.29541384	0.26503967	-0.028766715	0.65433907	0.039620077	0.072125221	0.67520777	0.39134283	-0.11335765	0.77736136	0.44315218	0.16275691	0.68372218	0.37812703	0.0080349251	0.73970969	0.43264751	0.040064657	0.62504548	0.78350629	-0.11457679	0.66943694	0.80320856	0.22515749	0.70441063	0.83849755	-0.084702254	0.74468154	0.85708507	0.15707544	0.5384865	0.91927634	0.065670144	0.64206754	1.3351203	-0.1180923	0.65601273	1.3044312	0.24268605	0.57363974	1.3589618	0.066064687	0.65985441	1.0118781	-0.20085059	0.55162951	1.004825	0.29965476	0.87682728	0.90667501	-0.1375904	0.66058007	0.7927658	0.34455996
297	1.184	0.37132769	0.083395868	-0.06369159	0.84657574	0.035596515	0.10421605	0.35930727	0.21339574	-0.083385743	0.70954671	0.059926373	0.13040964	0.38133754	0.21521521	-0.00012158557	0.72904225	0.082541629	0.04306349	0.3092378	0.26345456	-0.028425891	0.65431109	0.039788008	0.072217939	0.68769297	0.39407168	-0.11331212	0.77885584	0.44326966	0.16302434	0.69696298	0.38067285	0.0082384456	0.74082852	0.43290911	0.040225709	0.63148824	0.78577113	-0.11392609	0.67441368	0.80415572	0.22570244	0.71071279	0.84070726	-0.084028878	0.750303	0.85855738	0.15805585	0.54466522	0.92093762	0.066833552	0.64770483	1.3370694	-0.11787175	0.66229729	1.3066069	0.24275461	0.57983473	1.3608324	0.066332936	0.66331146	1.0140017	-0.2009631	0.56077681	1.0059834	0.30069167	0.87912637	0.90526293	-0.13915977	0.67356689	0.79550915	0.34390951
298	1.188	0.38868416	0.082748148	-0.063629396	0.8465518	0.035602274	0.10426292	0.37417927	0.21245191	-0.083070375	0.70939213	0.060040623	0.13058016	0.39624295	0.21449635	0.00022326089	0.72907219	0.0827287	0.043173881	0.323136	0.26155583	-0.028065419	0.65428832	0.039963307	0.072327123	0.70000624	0.39692073	-0.11322322	0.7802643	0.44335453	0.16326924	0.71018442	0.38334509	0.0084538838	0.74207968	0.4332053	0.040345871	0.63808547	0.78812502	-0.11331567	0.6793628	0.8051132	0.22621245	0.71695852	0.84288866	-0.083463585	0.75589856	0.86005837	0.15903628	0.55076485	0.92262297	0.067703925	0.65336867	1.339005	-0.11762912	0.66855771	1.3088022	0.24282025	0.58601568	1.3626733	0.066592681	0.6667597	1.0161717	-0.20095591	0.56983842	1.0071672	0.30167828	0.88136361	0.90391678	-0.14081994	0.68655153	0.79839581	0.34320889
299	1.192	0.40625699	0.081954891	-0.063572157	0.84653987	0.035608426	0.10430128	0.38911442	0.2112785	-0.082712592	0.70932066	0.060149894	0.13071197	0.41126785	0.2135736	0.00056119554	0.72911206	0.082928406	0.043277102	0.33710086	0.25935149	-0.027677612	0.65425542	0.040148595	0.072469258	0.71213862	0.39986384	-0.11305466	0.78154024	0.44339707	0.16346927	0.72336552	0.38616335	0.008671071	0.74343976	0.43353335	0.040464731	0.64480833	0.79048437	-0.11289753	0.68430717	0.80608577	0.22669624	0.7230849	0.84504223	-0.083164934	0.76146659	0.86157811	0.1599938	0.55680866	0.924319	0.068339964	0.65906549	1.3409284	-0.11736517	0.67479759	1.3110094	0.24288485	0.59218429	1.3644763	0.066843836	0.67022284	1.0183892	-0.2007918	0.5788219	1.0083767	0.30261607	0.88356275	0.9026492	-0.14257582	0.69952624	0.80141851	0.3424602
300	1.196	0.42406086	0.081038909	-0.063517823	0.84653358	0.035617163	0.1043296	0.4041269	0.20988797	-0.082318111	0.70932152	0.060228466	0.130796	0.42643298	0.21245041	0.00088235829	0.72914761	0.083138526	0.043385936	0.35112712	0.2568619	-0.027246291	0.65419864	0.040351352	0.072654756	0.72417659	0.40288173	-0.11282841	0.78271407	0.44343662	0.16364708	0.7364091	0.38914542	0.0089068131	0.74479877	0.43390875	0.040596334	0.65159823	0.79277285	-0.11270237	0.68928296	0.80707198	0.22718479	0.72918357	0.84718619	-0.083029996	0.76701476	0.86310817	0.16092826	0.5628204	0.9260117	0.068798127	0.66479661	1.3428351	-0.11708441	0.6810212	1.3132196	0.24294827	0.59833904	1.3662416	0.067089558	0.67368464	1.0206394	-0.20055519	0.58775329	1.0096158	0.30351876	0.88573344	0.9014656	-0.14442864	0.71247366	0.80457984	0.34166356
301	1.2	0.4420861	0.080008633	-0.063459537	0.84652754	0.035627421	0.10434916	0.41923351	0.20829984	-0.081902341	0.70934022	0.060277816	0.13085168	0.44175161	0.21113384	0.0011754314	0.72917324	0.083368222	0.043514907	0.36521143	0.25410429	-0.026768751	0.65412918	0.040576019	0.072853732	0.73618563	0.40596108	-0.11258289	0.78385927	0.44353047	0.16385926	0.74915184	0.39229712	0.0091951289	0.74600019	0.43432831	0.040747416	0.65839202	0.79498309	-0.11256639	0.69430381	0.80805757	0.22769336	0.73545697	0.84934678	-0.082760977	0.77255168	0.86463505	0.161847	0.56882279	0.92768875	0.069123544	0.67055666	1.3447146	-0.11679196	0.68723599	1.3154236	0.24301129	0.60447597	1.3679701	0.067334663	0.6771211	1.0228986	-0.20033919	0.59664673	1.0108818	0.30439667	0.88785218	0.90034229	-0.14636526	0.72537863	0.80787824	0.34082105
302	1.204	0.46031408	0.078868831	-0.063392609	0.846521	0.035636703	0.10436233	0.43444082	0.2065341	-0.081479424	0.70934777	0.060330269	0.13090147	0.45717952	0.20964303	0.0014466549	0.72919786	0.083626356	0.043665978	0.3793665	0.2510792	-0.026277939	0.65407831	0.040818736	0.073010678	0.74817042	0.40907946	-0.11231405	0.78500139	0.44369919	0.16413529	0.76152181	0.39559043	0.0095291354	0.74691914	0.43475951	0.040921844	0.66517234	0.79714242	-0.11234756	0.6992938	0.80900192	0.22815586	0.74197147	0.85151593	-0.082207835	0.77808501	0.86614387	0.1627554	0.57483845	0.92933893	0.069355215	0.67634096	1.3465538	-0.1164903	0.69344984	1.3176111	0.24307537	0.61059627	1.3696553	0.067582331	0.68051823	1.0251397	-0.20018036	0.60550135	1.0121662	0.30525486	0.88988408	0.89923789	-0.14836733	0.73824759	0.81130347	0.33994539
303	1.208	0.47877437	0.07763623	-0.063353533	0.84651637	0.035644797	0.10437135	0.4497585	0.2046038	-0.081060384	0.70935066	0.060423278	0.13095965	0.47263002	0.20800728	0.0017366641	0.7292306	0.08390914	0.043831572	0.39361811	0.24777302	-0.025816861	0.65406261	0.041073869	0.07310545	0.76012395	0.41220962	-0.11199031	0.78607269	0.44390704	0.16443244	0.77358559	0.39896611	0.0098667483	0.74750425	0.43518691	0.041082127	0.67198101	0.79927376	-0.11206633	0.70415696	0.80986436	0.22846918	0.74856258	0.85364672	-0.081495805	0.78362344	0.86762401	0.16365786	0.58089208	0.93095099	0.069533109	0.68215367	1.3483418	-0.1161788	0.69966673	1.3197727	0.24314019	0.61670526	1.3712851	0.067828576	0.68386989	1.027343	-0.20007155	0.61431145	1.0134605	0.30609531	0.89182372	0.89813341	-0.15042212	0.75109224	0.81484451	0.33905237
304	1.212	0.49756565	0.076342004	-0.063433893	0.84651656	0.035654062	0.10437929	0.46520344	0.20251303	-0.08065158	0.70937266	0.060562849	0.13102849	0.48805558	0.20623745	0.0020933156	0.72927215	0.084206518	0.04400442	0.40798039	0.24418032	-0.025393701	0.65407263	0.041341898	0.073164856	0.77203696	0.41533408	-0.11159886	0.78699727	0.44409733	0.16469159	0.78545019	0.40238151	0.010213095	0.74786162	0.43562348	0.041164035	0.67886563	0.80138969	-0.1118053	0.70901793	0.8106838	0.22866594	0.75504474	0.85570166	-0.080811041	0.78917374	0.86906966	0.16455762	0.58701259	0.93251306	0.069702806	0.68800623	1.3500721	-0.11586233	0.705887	1.3219014	0.24320488	0.62280648	1.3728518	0.068065021	0.68717841	1.0295051	-0.1999962	0.62309	1.0147618	0.30692445	0.89369189	0.89704214	-0.15252555	0.76390574	0.81849088	0.3381479
305	1.216	0.51673829	0.075010315	-0.063685662	0.84652294	0.03566579	0.10439076	0.48078664	0.2002624	-0.080254617	0.7094365	0.060722273	0.13110412	0.50349019	0.20431154	0.0025170346	0.72932115	0.084512973	0.04417788	0.42245656	0.24031396	-0.024977042	0.65409741	0.041626048	0.07321616	0.7838878	0.41843211	-0.11113524	0.7877931	0.44424198	0.16491761	0.79722962	0.40583817	0.010622201	0.74827177	0.43606925	0.041166041	0.6858458	0.80349549	-0.11158962	0.71421176	0.81156925	0.22892341	0.76141025	0.85768823	-0.080198724	0.79473728	0.87047987	0.16545542	0.59323071	0.93401395	0.069915004	0.69391346	1.351741	-0.11555925	0.71211117	1.3239913	0.24326987	0.62890298	1.3743572	0.068289042	0.69045785	1.0316304	-0.19994424	0.63188699	1.0160715	0.30776207	0.89550523	0.89598007	-0.15468165	0.77666588	0.82223123	0.33722884
306	1.22	0.5361884	0.073646907	-0.064039539	0.84653527	0.035677682	0.10441071	0.49650743	0.19785155	-0.079867204	0.70954453	0.060873266	0.13118705	0.51903338	0.20219917	0.0029498782	0.7293825	0.084826912	0.044344932	0.43706047	0.23619097	-0.024533966	0.6541431	0.041925215	0.073258457	0.79565863	0.42146774	-0.11057573	0.78855488	0.44436265	0.16516629	0.80898202	0.40935053	0.011132214	0.7490463	0.43650282	0.041179741	0.69293049	0.80558894	-0.1113782	0.71986637	0.81255967	0.22934304	0.76784345	0.85965679	-0.079547228	0.80030903	0.87185339	0.16634949	0.59956473	0.9354472	0.070212774	0.69988532	1.3533436	-0.11528869	0.71834035	1.3260353	0.24333455	0.63499884	1.3758021	0.068505227	0.69372324	1.0337153	-0.19990971	0.64074893	1.0173863	0.30862725	0.89726941	0.89494776	-0.15689589	0.78934375	0.82605334	0.33628458
307	1.224	0.55576221	0.07225886	-0.064387841	0.84655249	0.035685146	0.10444425	0.51236281	0.19527656	-0.079487919	0.70966332	0.061014285	0.13128734	0.53482284	0.1998897	0.0033145608	0.72946632	0.085145965	0.044505359	0.45181373	0.23182165	-0.024054199	0.65422435	0.042236338	0.073276797	0.80735461	0.42442643	-0.10990773	0.78936353	0.44449868	0.16548331	0.82065426	0.41290886	0.01174488	0.75032037	0.43690114	0.041301491	0.70013098	0.80766297	-0.1111007	0.72564701	0.81356272	0.22985197	0.7745882	0.86166604	-0.078692306	0.8058802	0.87318053	0.16723591	0.60599221	0.93681634	0.0705995	0.70590925	1.3548713	-0.11504262	0.72457313	1.3280263	0.24339566	0.641096	1.3771823	0.068717634	0.69697745	1.0357464	-0.19988482	0.64962924	1.0186841	0.30950256	0.89899233	0.89393771	-0.15916572	0.80191546	0.82994575	0.33530065
